<svg width="64" height="64" viewBox="0 0 64 64" fill="none" xmlns="http://www.w3.org/2000/svg">
<rect width="64" height="64" rx="8" fill="black"/>
<g clip-path="url(#clip0_331_2542)">
<path d="M54.9862 53.4H41.6112C40.9725 53.4 40.3967 52.97 40.1538 52.3133L25.2584 12.05C24.5446 10.1167 25.8221 8 27.6994 8H38.8763C39.3771 8 39.8269 8.33667 40.0158 8.85L55.9219 51.8467C56.1948 52.5867 55.7059 53.4 54.9862 53.4Z" fill="#056F61" fill-opacity="0.9"/>
<path d="M33.4695 45.6665C33.3855 46.0098 33.2895 46.3498 33.1846 46.6831C33.1336 46.8531 33.0826 47.0198 33.0256 47.1831C33.0256 47.1865 33.0256 47.1898 33.0226 47.1931C32.5998 48.4631 32.063 49.6731 31.4542 50.7631C30.3656 52.7165 29.0461 54.2965 27.7086 55.1931C26.9829 55.7198 26.1372 55.9998 25.2735 55.9998H18.3911L25.5884 44.1265H32.4318C33.5774 44.1265 33.6464 44.6765 33.4695 45.6665Z" fill="#16F4CF"/>
<path d="M25.8104 43.5133C25.6454 44.0633 23.7442 50.5133 24.101 53.1467C24.2899 54.5467 24.8237 55.4267 25.8224 56H12.1295C9.20561 56 7.20836 52.7133 8.30295 49.7L22.7005 9.96667C23.1324 8.78 24.17 8 25.3216 8H38.6786L25.8224 43.4767L25.8164 43.4933C25.8164 43.4933 25.8134 43.5067 25.8104 43.5133Z" fill="url(#paint0_linear_331_2542)"/>
</g>
<defs>
<linearGradient id="paint0_linear_331_2542" x1="79.6694" y1="-26.4157" x2="-20.7347" y2="59.6616" gradientUnits="userSpaceOnUse">
<stop offset="0.11" stop-color="#00FF0D"/>
<stop offset="0.615385" stop-color="#00E9FF"/>
<stop offset="0.99" stop-color="#286A02"/>
</linearGradient>
<clipPath id="clip0_331_2542">
<rect width="48" height="48" fill="white" transform="translate(8 8)"/>
</clipPath>
</defs>
</svg>
